<svg width="14" height="12" viewBox="0 0 14 12" fill="none" xmlns="http://www.w3.org/2000/svg">
<path d="M11.7487 11.2298L9.78723 9.24263C9.45901 9.38451 9.05412 9.51913 8.57257 9.64646C8.0909 9.77379 7.56673 9.83746 7.00007 9.83746C5.6334 9.83746 4.35157 9.47313 3.15457 8.74446C1.95757 8.0159 1.07873 7.00246 0.518066 5.70413C0.732511 5.12635 1.09618 4.55818 1.60907 3.99963C2.12184 3.44107 2.64107 2.97635 3.16673 2.60546L1.4744 0.938793L1.8629 0.550293L12.1372 10.8413L11.7487 11.2298ZM7.00007 7.93996C7.18984 7.93996 7.40307 7.91052 7.63973 7.85163C7.87651 7.79263 8.06412 7.72807 8.20257 7.65796L5.04623 4.50163C4.98723 4.65718 4.92546 4.85118 4.8609 5.08363C4.79646 5.31607 4.76423 5.5229 4.76423 5.70413C4.76423 6.32801 4.9809 6.85663 5.41423 7.28996C5.84757 7.72329 6.37618 7.93996 7.00007 7.93996ZM11.3719 8.35029L9.2064 6.18496C9.21073 6.13451 9.21673 6.06357 9.2244 5.97213C9.23207 5.88068 9.2359 5.79135 9.2359 5.70413C9.2359 5.08024 9.01923 4.55163 8.5859 4.11829C8.15257 3.68496 7.62396 3.46829 7.00007 3.46829C6.91284 3.46829 6.83057 3.47146 6.75323 3.47779C6.6759 3.48424 6.60218 3.49385 6.53207 3.50663L4.87957 1.86696C5.23346 1.74307 5.59134 1.66274 5.95323 1.62596C6.31523 1.58918 6.66418 1.57079 7.00007 1.57079C8.35818 1.57079 9.64001 1.93513 10.8456 2.66379C12.0511 3.39235 12.93 4.40579 13.4821 5.70413C13.2547 6.21779 12.964 6.68807 12.6097 7.11496C12.2554 7.54196 11.8428 7.95374 11.3719 8.35029ZM8.59623 5.58746L7.11673 4.10413C7.30473 4.0819 7.48762 4.10051 7.6654 4.15996C7.84318 4.21929 8.00984 4.32246 8.1654 4.46946C8.30729 4.59424 8.41801 4.75601 8.49757 4.95479C8.57701 5.15346 8.6099 5.36435 8.59623 5.58746Z" fill="#1C1B1F"/>
</svg>
