<svg width="12" height="13" viewBox="0 0 12 13" fill="none" xmlns="http://www.w3.org/2000/svg">
<path d="M6.24984 10.0277L2.8588 6.63665L3.63296 5.87873L5.70817 7.95394V0.620605H6.7915V7.95394L8.86671 5.87873L9.64088 6.63665L6.24984 10.0277ZM2.00046 12.7873C1.62505 12.7873 1.30887 12.6578 1.05192 12.3987C0.794976 12.1397 0.666504 11.8226 0.666504 11.4475V10.1879H1.74984V11.4475C1.74984 11.5116 1.77657 11.5704 1.83005 11.6237C1.88338 11.6772 1.94213 11.7039 2.0063 11.7039H10.4934C10.5575 11.7039 10.6163 11.6772 10.6696 11.6237C10.7231 11.5704 10.7498 11.5116 10.7498 11.4475V10.1879H11.8332V11.4475C11.8332 11.8226 11.7036 12.1397 11.4444 12.3987C11.1853 12.6578 10.868 12.7873 10.4925 12.7873H2.00046Z" fill="#1C1B1F"/>
</svg>
