<svg width="20" height="21" viewBox="0 0 20 21" fill="none" xmlns="http://www.w3.org/2000/svg">
<mask id="mask0_1019_2257" style="mask-type:alpha" maskUnits="userSpaceOnUse" x="0" y="0" width="20" height="21">
<rect y="0.704102" width="20" height="20" fill="#D9D9D9"/>
</mask>
<g mask="url(#mask0_1019_2257)">
<path d="M9.45817 14.4956H10.5415V9.70394H9.45817V14.4956ZM9.99546 8.44436C10.1613 8.44436 10.3018 8.38825 10.4169 8.27602C10.5321 8.1638 10.5896 8.02477 10.5896 7.85894C10.5896 7.69311 10.5335 7.55262 10.4213 7.43748C10.3091 7.32248 10.17 7.26498 10.0042 7.26498C9.83838 7.26498 9.69789 7.32102 9.58275 7.43311C9.46762 7.54533 9.41005 7.68436 9.41005 7.85019C9.41005 8.01602 9.46616 8.15651 9.57838 8.27165C9.6906 8.38679 9.82963 8.44436 9.99546 8.44436ZM10.0069 18.2873C8.96373 18.2873 7.98123 18.0899 7.05942 17.6952C6.13761 17.3005 5.33081 16.7573 4.639 16.0658C3.9472 15.3743 3.4038 14.5681 3.0088 13.6473C2.61393 12.7266 2.4165 11.7428 2.4165 10.6958C2.4165 9.64887 2.61387 8.66797 3.00859 7.75311C3.40331 6.83824 3.94643 6.03491 4.63796 5.34311C5.32949 4.6513 6.13567 4.1079 7.0565 3.7129C7.9772 3.31804 8.96102 3.12061 10.008 3.12061C11.0549 3.12061 12.0358 3.31797 12.9507 3.71269C13.8655 4.10741 14.6689 4.65054 15.3607 5.34206C16.0525 6.03359 16.5959 6.83811 16.9909 7.75561C17.3857 8.67324 17.5832 9.65366 17.5832 10.6969C17.5832 11.7401 17.3858 12.7226 16.9911 13.6444C16.5964 14.5662 16.0532 15.373 15.3617 16.0648C14.6702 16.7566 13.8657 17.3 12.9482 17.695C12.0305 18.0898 11.0501 18.2873 10.0069 18.2873ZM9.99984 17.2039C11.8054 17.2039 13.3401 16.572 14.604 15.3081C15.8679 14.0442 16.4998 12.5095 16.4998 10.7039C16.4998 8.89838 15.8679 7.36366 14.604 6.09977C13.3401 4.83588 11.8054 4.20394 9.99984 4.20394C8.19428 4.20394 6.65956 4.83588 5.39567 6.09977C4.13178 7.36366 3.49984 8.89838 3.49984 10.7039C3.49984 12.5095 4.13178 14.0442 5.39567 15.3081C6.65956 16.572 8.19428 17.2039 9.99984 17.2039Z" fill="black"/>
</g>
</svg>
