<svg width="12" height="14" viewBox="0 0 12 14" fill="none" xmlns="http://www.w3.org/2000/svg">
    <path d="M3.15717 13.0831C2.78745 13.0831 2.47169 12.9523 2.20988 12.6906C1.94822 12.4288 1.81738 12.113 1.81738 11.7433V1.99978H0.817383V0.916445H4.40072V0.0126953H8.40072V0.916445H11.984V1.99978H10.984V11.7344C10.984 12.1196 10.8545 12.4408 10.5955 12.6977C10.3365 12.9546 10.0194 13.0831 9.64426 13.0831H3.15717ZM9.90072 1.99978H2.90072V11.7433C2.90072 11.8182 2.92474 11.8796 2.9728 11.9277C3.02085 11.9758 3.08231 11.9998 3.15717 11.9998H9.64426C9.70843 11.9998 9.76718 11.973 9.82051 11.9196C9.87398 11.8662 9.90072 11.8075 9.90072 11.7433V1.99978ZM4.73738 10.4998H5.82051V3.49978H4.73738V10.4998ZM6.98092 10.4998H8.06405V3.49978H6.98092V10.4998Z" fill="#BF0000"/>
</svg>