<svg width="14" height="14" viewBox="0 0 14 14" fill="none" xmlns="http://www.w3.org/2000/svg">
<path d="M13.5832 2.88019V11.9475C13.5832 12.3226 13.4537 12.6397 13.1946 12.8987C12.9356 13.1578 12.6185 13.2873 12.2434 13.2873H1.7563C1.38116 13.2873 1.06407 13.1578 0.805045 12.8987C0.546018 12.6397 0.416504 12.3226 0.416504 11.9475V1.4604C0.416504 1.08526 0.546018 0.768175 0.805045 0.509148C1.06407 0.25012 1.38116 0.120605 1.7563 0.120605H10.8236L13.5832 2.88019ZM6.99796 10.845C7.50671 10.845 7.93977 10.6669 8.29713 10.3108C8.65449 9.9547 8.83317 9.52227 8.83317 9.01352C8.83317 8.50477 8.65512 8.07172 8.299 7.71436C7.94289 7.35699 7.51046 7.17831 7.00171 7.17831C6.49296 7.17831 6.05991 7.35637 5.70255 7.71248C5.34518 8.06859 5.1665 8.50102 5.1665 9.00977C5.1665 9.51852 5.34456 9.95158 5.70067 10.3089C6.05678 10.6663 6.48921 10.845 6.99796 10.845ZM2.82046 5.10769H9.16317V2.52456H2.82046V5.10769Z" fill="white"/>
</svg>
