<svg width="16" height="16" viewBox="0 0 16 16" fill="none" xmlns="http://www.w3.org/2000/svg">
<path d="M6.76446 15.2873L6.32217 13.0404C5.96008 12.9101 5.59231 12.743 5.21883 12.5389C4.8455 12.3348 4.51085 12.1003 4.21488 11.8354L2.05133 12.5581L0.815918 10.4123L2.51613 8.91706C2.48307 8.72373 2.45557 8.52637 2.43363 8.32498C2.41168 8.12359 2.40071 7.91922 2.40071 7.71186C2.40071 7.51005 2.41168 7.30977 2.43363 7.11102C2.45557 6.91227 2.48307 6.70554 2.51613 6.49081L0.815918 4.99561L2.05133 2.86581L4.20675 3.58061C4.51883 3.31033 4.85488 3.07449 5.21488 2.87311C5.57488 2.67172 5.94133 2.50317 6.31425 2.36748L6.76446 0.120605H9.23571L9.678 2.3754C10.0669 2.52179 10.432 2.69033 10.7732 2.88102C11.1146 3.07172 11.444 3.30491 11.7613 3.58061L13.9488 2.86581L15.1843 4.99561L13.452 6.51477C13.4957 6.7188 13.5259 6.91755 13.5426 7.11102C13.5591 7.30436 13.5674 7.50199 13.5674 7.70394C13.5674 7.90047 13.5577 8.09547 13.5384 8.28894C13.5193 8.48227 13.4931 8.68901 13.4601 8.90915L15.1763 10.4123L13.9407 12.5581L11.7613 11.8273C11.444 12.103 11.112 12.3388 10.7653 12.5348C10.4186 12.7309 10.0562 12.8968 9.678 13.0325L9.23571 15.2873H6.76446ZM7.968 10.2873C8.68911 10.2873 9.29994 10.037 9.8005 9.53644C10.3011 9.03588 10.5513 8.42505 10.5513 7.70394C10.5513 6.98283 10.3011 6.37199 9.8005 5.87144C9.29994 5.37088 8.68911 5.12061 7.968 5.12061C7.25217 5.12061 6.64265 5.37088 6.13946 5.87144C5.63627 6.37199 5.38467 6.98283 5.38467 7.70394C5.38467 8.42505 5.63627 9.03588 6.13946 9.53644C6.64265 10.037 7.25217 10.2873 7.968 10.2873Z" fill="white"/>
</svg>
