<svg width="11" height="13" viewBox="0 0 11 13" fill="none" xmlns="http://www.w3.org/2000/svg">
<path d="M4.90348 12.4564L4.56248 10.7616C4.23859 10.653 3.89737 10.5021 3.53881 10.3089C3.18026 10.1158 2.86981 9.89619 2.60748 9.65008L0.979145 10.1897L0.285645 8.97308L1.55614 7.84741C1.52537 7.67141 1.49803 7.48897 1.47414 7.30008C1.45014 7.11119 1.43814 6.92313 1.43814 6.73591C1.43814 6.55725 1.45014 6.37564 1.47414 6.19108C1.49803 6.00641 1.52537 5.80897 1.55614 5.59875L0.285645 4.47308L0.979145 3.28208L2.59465 3.80891C2.88264 3.55425 3.19526 3.33247 3.53248 3.14358C3.86959 2.95469 4.20864 2.80169 4.54964 2.68458L4.90348 0.989746H6.29081L6.63181 2.69741C6.99848 2.83164 7.33542 2.98464 7.64265 3.15641C7.94987 3.32819 8.25181 3.54569 8.54848 3.80891L10.2151 3.28208L10.9086 4.47308L9.58681 5.63725C9.6347 5.83036 9.66637 6.01497 9.68181 6.19108C9.69715 6.36708 9.70481 6.54441 9.70481 6.72308C9.70481 6.89319 9.69498 7.06625 9.67531 7.24225C9.65565 7.41836 9.63042 7.6158 9.59965 7.83458L10.8958 8.97308L10.2023 10.1897L8.54848 9.63725C8.25181 9.90047 7.94559 10.1222 7.62981 10.3026C7.31403 10.4829 6.98137 10.6316 6.63181 10.7487L6.29081 12.4564H4.90348ZM5.54581 8.45641C6.03303 8.45641 6.44376 8.2893 6.77798 7.95508C7.11209 7.62097 7.27914 7.2103 7.27914 6.72308C7.27914 6.23586 7.11209 5.82519 6.77798 5.49108C6.44376 5.15686 6.03303 4.98975 5.54581 4.98975C5.06726 4.98975 4.6587 5.15686 4.32015 5.49108C3.9817 5.82519 3.81248 6.23586 3.81248 6.72308C3.81248 7.2103 3.9817 7.62097 4.32015 7.95508C4.6587 8.2893 5.06726 8.45641 5.54581 8.45641Z" fill="black"/>
</svg>
