<svg width="14" height="12" viewBox="0 0 14 12" fill="none" xmlns="http://www.w3.org/2000/svg">
  <path d="M7 9.83746C5.6334 9.83746 4.35157 9.47313 3.15457 8.74446C1.95757 8.0159 1.07873 7.00246 0.518066 5.70413C1.07873 4.40579 1.95757 3.39235 3.15457 2.66379C4.35157 1.93513 5.6334 1.57079 7 1.57079C8.3666 1.57079 9.64843 1.93513 10.8454 2.66379C12.0424 3.39235 12.9213 4.40579 13.482 5.70413C12.9213 7.00246 12.0424 8.0159 10.8454 8.74446C9.64843 9.47313 8.3666 9.83746 7 9.83746ZM7 8.53746C7.62396 8.53746 8.15257 8.32079 8.5859 7.88746C9.01923 7.45413 9.2359 6.92552 9.2359 6.30163C9.2359 5.67774 9.01923 5.14913 8.5859 4.7158C8.15257 4.28246 7.62396 4.06579 7 4.06579C6.37604 4.06579 5.84743 4.28246 5.4141 4.7158C4.98077 5.14913 4.7641 5.67774 4.7641 6.30163C4.7641 6.92552 4.98077 7.45413 5.4141 7.88746C5.84743 8.32079 6.37604 8.53746 7 8.53746Z" fill="#1C1B1F"/>
</svg>
